HIERARCHY
ROOT hip
{
	OFFSET 0.000000 0.000000 0.000000 
	CHANNELS 6 Xposition Yposition Zposition Zrotation Xrotation Yrotation
	JOINT abdomen
	{
		OFFSET 0.000000 3.402643 0.000000 
		CHANNELS 3 Zrotation Xrotation Yrotation
		JOINT chest
		{
			OFFSET 0.000000 8.438565 -0.680529 
			CHANNELS 3 Zrotation Xrotation Yrotation
			JOINT neck
			{
				OFFSET 0.000000 10.207942 -0.272212 
				CHANNELS 3 Zrotation Xrotation Yrotation
				JOINT head
				{
					OFFSET 0.000000 3.130431 0.000000 
					CHANNELS 3 Zrotation Xrotation Yrotation
					End Site
					{
						OFFSET 0.000000 3.130435 0.000000 
					}
				}
			}
			JOINT lCollar
			{
				OFFSET 3.470700 6.669187 -0.816635 
				CHANNELS 3 Zrotation Xrotation Yrotation
				JOINT lShldr
				{
					OFFSET 3.198488 0.000000 0.000000 
					CHANNELS 3 Zrotation Xrotation Yrotation
					JOINT lForeArm
					{
						OFFSET 10.139888 0.000000 0.000000 
						CHANNELS 3 Zrotation Xrotation Yrotation
						JOINT lHand
						{
							OFFSET 8.370511 0.000000 0.000000 
							CHANNELS 3 Zrotation Xrotation Yrotation
							End Site
							{
								OFFSET 4.083176 0.000000 0.000000 
							}
						}
					}
				}
			}
			JOINT rCollar
			{
				OFFSET -3.470700 6.669187 -0.816635 
				CHANNELS 3 Zrotation Xrotation Yrotation
				JOINT rShldr
				{
					OFFSET -3.198488 0.000000 0.000000 
					CHANNELS 3 Zrotation Xrotation Yrotation
					JOINT rForeArm
					{
						OFFSET -10.139888 0.000000 0.000000 
						CHANNELS 3 Zrotation Xrotation Yrotation
						JOINT rHand
						{
							OFFSET -8.370511 0.000000 0.000000 
							CHANNELS 3 Zrotation Xrotation Yrotation
							End Site
							{
								OFFSET -4.083176 0.000000 0.000000 
							}
						}
					}
				}
			}
		}
	}
	JOINT lThigh
	{
		OFFSET 5.308129 -1.633274 1.361059 
		CHANNELS 3 Zrotation Xrotation Yrotation
		JOINT lShin
		{
			OFFSET -2.041588 -20.007561 0.000000 
			CHANNELS 3 Zrotation Xrotation Yrotation
			JOINT lFoot
			{
				OFFSET 0.000000 -19.190928 -1.224953 
				CHANNELS 3 Zrotation Xrotation Yrotation
				End Site
				{
					OFFSET 0.000000 -2.449906 4.627600 
				}
			}
		}
	}
	JOINT rThigh
	{
		OFFSET -5.308129 -1.633274 1.361059 
		CHANNELS 3 Zrotation Xrotation Yrotation
		JOINT rShin
		{
			OFFSET 2.041588 -20.007561 0.000000 
			CHANNELS 3 Zrotation Xrotation Yrotation
			JOINT rFoot
			{
				OFFSET 0.000000 -19.190928 -1.224953 
				CHANNELS 3 Zrotation Xrotation Yrotation
				End Site
				{
					OFFSET 0.000000 -2.449906 4.627600 
				}
			}
		}
	}
}
MOTION
Frames: 20
Frame Time: 0.033333
-0.005663 48.037178 0.215149 -0.000010 -0.000010 -0.000000 0.976589 -0.410095 0.182938 0.664068 -0.224594 -0.446616 -0.000000 -0.810546 -0.927734 0.000000 6.777343 -3.662109 -6.378665 -0.461221 1.164637 -54.063145 10.838869 -0.775558 -22.594046 33.652149 -47.746201 19.711817 10.153737 2.525488 5.611370 -0.526530 -1.778569 47.322884 17.588203 5.194622 24.750834 34.502354 46.456661 -15.198518 7.696162 -4.585458 3.939064 -7.500551 0.650785 -3.414306 15.439963 0.001465 -0.837080 -8.304992 0.939833 -4.349972 -7.472392 -0.504189 3.311544 15.382190 -0.288148 0.988427 -8.370193 -1.425379 
-0.012415 48.065231 0.123932 -0.000010 -0.000010 -0.000000 0.957052 -0.380806 0.191908 0.673864 -0.585895 -0.422681 -0.000000 -1.777347 -2.402344 0.000000 6.777345 -9.394528 -6.290528 -0.456107 1.223079 -52.576878 11.523412 0.189362 -19.020443 36.699215 -52.439873 15.411055 10.373735 3.268900 5.494867 -0.497352 -1.808087 46.747517 17.624548 3.545525 23.119480 36.305676 49.951889 -13.362189 10.307558 -6.660166 3.923778 -7.385425 0.655660 -3.343756 14.974774 -0.014785 -0.908758 -7.936034 0.924277 -4.341424 -7.331344 -0.585950 3.280387 14.846778 -0.220390 0.961763 -7.930361 -1.385519 
-0.019573 48.094975 0.027228 -0.000010 -0.000010 -0.000000 0.927752 -0.361282 0.191397 0.683693 -0.976491 -0.388739 -0.000000 -2.792974 -4.267578 0.000000 6.777345 -16.582027 -6.192845 -0.441889 1.281556 -51.001209 12.262930 1.219231 -14.583119 39.607967 -57.991486 11.151714 10.586102 4.013308 5.378453 -0.466185 -1.837602 46.129162 17.648220 1.783162 21.155104 38.178658 53.837471 -11.353627 12.860607 -8.759215 3.916667 -7.246625 0.630746 -3.327157 14.388991 0.027015 -0.891774 -7.525600 0.903255 -4.307757 -7.238354 -0.463311 3.245529 14.378446 -0.346479 0.967843 -7.583947 -1.406602 
-0.027007 48.125874 -0.073219 -0.000010 -0.000010 -0.000000 0.908219 -0.341751 0.190965 0.683791 -1.376853 -0.364428 -0.000000 -3.857424 -6.259766 0.000000 6.777345 -24.277344 -6.095241 -0.425358 1.340053 -49.384491 13.017623 2.295345 -9.249538 42.174797 -64.396492 6.923918 10.800671 4.765563 5.251964 -0.445271 -1.867151 45.481201 17.665998 -0.040996 18.856598 40.018620 58.059769 -9.181746 15.326657 -10.902703 3.906609 -7.150266 0.638936 -3.288778 13.906404 0.025775 -0.960651 -7.136581 0.895118 -4.279109 -7.048586 -0.566696 3.193325 13.715615 -0.248411 0.932493 -7.081709 -1.388331 
-0.034589 48.157379 -0.175659 -0.000010 -0.000010 -0.000000 0.878919 -0.312464 0.190341 0.693696 -1.786973 -0.329930 -0.000000 -4.931645 -8.154295 0.000000 6.777345 -31.572258 -5.987821 -0.410469 1.408307 -47.773689 13.785229 3.398790 -3.179421 44.182499 -71.484802 2.791106 11.009927 5.520190 5.125821 -0.414473 -1.896692 44.826408 17.656527 -1.906236 16.247755 41.772652 62.549122 -6.870398 17.706507 -13.071888 3.891464 -7.026002 0.721357 -3.179317 13.366568 -0.081034 -1.017162 -6.697859 0.893529 -4.236735 -6.995932 -0.437797 3.159868 13.295950 -0.365152 0.966460 -6.718126 -1.393074 
-0.042190 48.188965 -0.278346 -0.000010 -0.000010 -0.000000 0.849620 -0.283174 0.189891 0.693865 -2.187336 -0.305429 -0.000000 -6.015626 -9.677735 0.000000 6.777344 -37.539055 -5.880265 -0.404091 1.466864 -46.222168 14.537584 4.509911 3.397735 45.514477 -78.998276 -1.220625 11.207286 6.271996 4.999678 -0.384398 -1.926247 44.188095 17.640070 -3.761069 13.369141 43.355709 67.221756 -4.441287 19.946953 -15.257385 3.871838 -6.805606 0.666516 -3.119276 12.669227 -0.033079 -1.078868 -6.229111 0.904858 -4.214557 -6.800377 -0.550919 3.108268 12.611679 -0.268270 0.978449 -6.256394 -1.381114 
-0.049679 48.220085 -0.379529 -0.000010 -0.000010 -0.000000 0.830085 -0.244115 0.189084 0.703843 -2.587694 -0.280601 -0.000000 -7.080081 -10.585938 0.000000 6.777345 -41.240223 -5.782715 -0.388972 1.525412 -44.763706 15.252087 5.618419 10.106221 46.079311 -86.550354 -5.088141 11.396716 7.012551 4.873568 -0.353304 -1.965529 43.577549 17.595201 -5.583821 10.322173 44.720387 71.928177 -1.925411 22.043726 -17.435574 3.850671 -6.678108 0.591647 -3.065949 12.081090 0.045060 -1.129409 -5.772687 0.870215 -4.164051 -6.625636 -0.418060 3.094797 11.983812 -0.371357 0.998415 -5.770504 -1.399793 
-0.056929 48.250221 -0.477465 -0.000010 -0.000010 -0.000000 0.800787 -0.205060 0.198315 0.704057 -2.948994 -0.246860 -0.000000 -8.115238 -10.634767 0.000000 6.777345 -41.748032 -5.694997 -0.372920 1.583955 -43.424931 15.913095 6.693143 16.500362 45.971638 -93.694145 -8.732178 11.577734 7.722819 4.757003 -0.331390 -1.985328 43.025448 17.539658 -7.345195 7.230361 45.832508 76.532455 0.605940 23.952843 -19.585121 3.800990 -6.254561 0.649300 -2.990560 10.927146 -0.018756 -1.148361 -5.050311 0.844117 -4.114468 -6.192907 -0.375611 2.941321 10.762684 -0.416425 1.079912 -5.025756 -1.379831 
-0.063807 48.278812 -0.570405 -0.000010 -0.000010 -0.000000 0.781253 -0.146468 0.197309 0.714068 -3.290758 -0.222680 -0.000000 -9.091800 -9.560548 0.000001 6.777345 -38.154297 -5.607101 -0.365505 1.632787 -42.257118 16.498827 7.732306 22.229996 45.335545 -100.074768 -12.066467 11.738563 8.375380 4.659898 -0.311668 -2.014806 42.537426 17.469923 -9.002435 4.250892 46.681221 80.843422 3.056515 25.628128 -21.607338 3.796517 -6.141299 0.548302 -2.958593 10.422876 0.100951 -1.204473 -4.622880 0.819374 -4.094333 -6.086577 -0.489294 2.916392 10.308887 -0.283167 1.076422 -4.668355 -1.376370 
-0.070188 48.305332 -0.656602 -0.000010 -0.000010 -0.000000 0.751954 -0.078117 0.196338 0.714288 -3.583703 -0.199369 -0.000000 -10.000003 -7.128906 0.000000 6.777343 -29.511723 -5.539092 -0.347803 1.671853 -41.283539 17.001055 8.703417 27.022745 44.356541 -105.400612 -14.776168 11.861821 8.926269 4.572333 -0.299580 -2.034525 42.141365 17.396982 -10.515411 1.540788 47.269264 84.681999 5.142361 26.931131 -23.305119 3.798246 -6.115159 0.565566 -2.924608 10.116353 0.061898 -1.236499 -4.357543 0.848624 -4.072424 -6.131263 -0.432442 2.915857 10.149466 -0.372713 1.045901 -4.434520 -1.334358 
-0.075963 48.329353 -0.734641 -0.000010 -0.000010 -0.000000 0.732422 0.000000 0.195312 0.714485 -3.827828 -0.176788 -0.000000 -10.830080 -3.281250 0.000000 6.777344 -15.673827 -5.480668 -0.338192 1.701182 -40.527973 17.405548 9.583283 30.784550 43.294632 -109.590508 -14.608058 11.880646 8.873505 4.494527 -0.288574 -2.044477 41.853317 17.320419 -11.873850 -0.738799 47.654980 87.880035 4.966471 27.000343 -23.164877 3.824272 -6.080962 0.623483 -2.931466 9.970397 0.015736 -1.221221 -4.249910 0.838658 -4.090477 -6.090290 -0.479015 2.933081 9.961099 -0.367025 1.067937 -4.290972 -1.311157 
-0.081135 48.350853 -0.804505 -0.000010 -0.000010 -0.000000 0.712892 0.087884 0.194340 0.714652 -4.013359 -0.154935 -0.000000 -11.562502 1.152344 -0.000000 6.777345 0.429688 -5.431656 -0.340449 1.730482 -39.974957 17.702824 10.379372 33.571812 42.298733 -112.712257 -14.432620 11.900753 8.812660 4.436250 -0.277470 -2.064119 41.668159 17.233936 -13.067052 -2.572027 47.871185 90.430992 4.789916 27.058374 -23.018013 3.798008 -6.326742 0.636539 -2.931248 9.960281 0.015821 -1.179765 -3.992855 0.846155 -4.045117 -6.327314 -0.518944 2.930925 9.960127 -0.318012 0.992643 -4.067592 -1.351683 
-0.085725 48.369946 -0.866517 -0.000010 -0.000010 -0.000000 0.693363 0.195296 0.193067 0.714774 -4.159832 -0.143461 -0.000000 -12.216801 5.175781 0.000000 6.777345 15.107420 -5.402639 -0.329806 1.740288 -39.614918 17.925182 11.091600 35.576241 41.475018 -114.960594 -14.262592 11.931546 8.762684 4.387424 -0.276457 -2.064244 41.575760 17.152578 -14.116564 -3.930107 47.968121 92.340050 4.615639 27.111454 -22.865843 3.802011 -6.410092 0.587318 -2.933568 9.961841 0.084371 -1.174561 -3.915027 0.835811 -4.035725 -6.414353 -0.419300 2.933095 9.942338 -0.416049 1.001758 -3.946577 -1.359361 
-0.089756 48.386726 -0.920990 -0.000010 -0.000010 -0.000000 0.673838 0.312483 0.191637 0.714864 -4.257482 -0.122587 0.000000 -12.792973 7.753907 -0.000000 6.777345 24.667967 -5.373298 -0.329840 1.750092 -39.406849 18.068235 11.728543 36.930305 40.842873 -116.484840 -14.106091 11.957951 8.714637 4.358130 -0.275392 -2.074064 41.554474 17.079800 -15.012563 -4.885661 48.000347 93.694664 4.437584 27.177279 -22.725267 3.800456 -6.446007 0.580901 -2.953373 9.905124 0.087252 -1.195705 -3.798000 0.837717 -4.028486 -6.476288 -0.425304 2.923701 9.925358 -0.434906 1.013028 -3.882721 -1.333789 
-0.093254 48.401283 -0.968239 -0.000010 -0.000010 -0.000000 0.654316 0.439428 0.190295 0.705125 -4.316076 -0.112947 0.000000 -13.291017 7.871095 -0.000000 6.777345 25.419922 -5.363483 -0.330451 1.759848 -39.339169 18.140459 12.289593 37.724461 40.431328 -117.390579 -13.930679 11.978161 8.653355 4.338304 -0.283708 -2.064385 41.611839 17.008219 -15.785332 -5.462195 47.973755 94.532974 4.262757 27.230164 -22.573296 3.799991 -6.512655 0.705311 -2.932325 9.907472 -0.031861 -1.213966 -3.770819 0.819028 -4.028248 -6.524044 -0.518516 2.932577 9.909050 -0.328960 0.951967 -3.831769 -1.358850 
-0.096239 48.413712 -1.008571 -0.000010 -0.000010 -0.000000 0.634797 0.566370 0.189038 0.705143 -4.335608 -0.102940 0.000000 -13.720706 4.941409 -0.000000 6.777344 15.185553 -5.353751 -0.330152 1.750155 -39.392517 18.154482 12.774776 38.051609 40.245262 -117.775848 -13.756661 12.000493 8.605742 4.328193 -0.293123 -2.064414 41.733723 16.945372 -16.445831 -5.676205 47.915852 94.900520 4.084561 27.302925 -22.425982 3.823083 -6.537210 0.671811 -2.922336 9.881448 0.015837 -1.214167 -3.721727 0.819850 -4.020009 -6.574802 -0.523092 2.920263 9.891973 -0.317762 0.986074 -3.740795 -1.329445 
-0.098734 48.424110 -1.042287 -0.000010 -0.000010 -0.000000 0.625048 0.712846 0.187642 0.695331 -4.316090 -0.094152 -0.000000 -14.072268 0.058594 0.000000 6.777343 -2.041014 -5.353751 -0.330152 1.750155 -39.550812 18.118368 13.194455 37.971001 40.246048 -117.699089 -13.586716 12.031550 8.555154 4.327865 -0.302875 -2.054677 41.907120 16.890881 -16.983908 -5.596698 47.824982 94.868530 3.907902 27.356504 -22.287390 3.822203 -6.583856 0.666670 -2.922642 9.891859 0.025521 -1.207924 -3.682957 0.810898 -4.009158 -6.602077 -0.544156 2.910913 9.884525 -0.316996 0.964309 -3.717971 -1.332873 
-0.100761 48.432571 -1.069682 -0.000010 -0.000010 -0.000000 0.605537 0.859333 0.186231 0.695278 -4.257503 -0.085100 -0.000000 -14.365238 -5.253905 0.000000 6.777344 -20.751949 -5.363595 -0.328624 1.740400 -39.784557 18.036283 13.548605 37.550297 40.417030 -117.245522 -13.418795 12.050701 8.501393 4.336927 -0.322756 -2.054656 42.121742 16.843031 -17.430227 -5.271086 47.715904 94.498161 3.730193 27.421125 -22.134182 3.823347 -6.624308 0.602571 -2.952622 9.854710 0.097462 -1.238352 -3.558267 0.790225 -3.996991 -6.636425 -0.506835 2.913110 9.875302 -0.366119 0.979430 -3.671286 -1.322860 
-0.102343 48.439171 -1.091047 -0.000010 -0.000010 -0.000000 0.595797 1.015571 0.184854 0.685408 -4.169621 -0.076999 -0.000000 -14.589848 -9.472657 0.000000 6.777344 -35.439445 -5.383203 -0.328297 1.720900 -40.089424 17.919476 13.848247 36.855473 40.708286 -116.475380 -13.245065 12.074618 8.453356 4.356177 -0.331724 -2.044868 42.375568 16.795828 -17.784269 -4.731079 47.582474 93.845482 3.554302 27.473591 -21.982607 3.830979 -6.630081 0.613640 -2.943052 9.837156 0.096782 -1.206808 -3.592049 0.841788 -3.997296 -6.656121 -0.430599 2.913964 9.887487 -0.434426 0.984343 -3.643999 -1.311860 
-0.103498 48.444008 -1.106667 -0.000010 -0.000010 -0.000000 0.586058 1.162042 0.183526 0.675517 -4.052451 -0.079212 -0.000000 -14.755861 -11.083984 0.000000 6.777344 -40.576160 -5.402487 -0.337724 1.711124 -40.450634 17.787216 14.094883 35.913853 41.096321 -115.437378 -13.084603 12.092698 8.407281 4.375034 -0.351943 -2.035074 42.646912 16.762022 -18.057570 -4.045390 47.425480 92.987259 3.366949 27.527479 -21.835693 3.833096 -6.662596 0.617532 -2.933832 9.839564 0.086163 -1.215728 -3.535333 0.821045 -3.998067 -6.667013 -0.431934 2.913835 9.877661 -0.444283 0.984324 -3.633857 -1.312250 
